<?xml version="1.0" encoding="UTF-8" standalone="no"?>
<!-- Created with Inkscape (http://www.inkscape.org/) -->
<svg
   width="123.36917mm"
   height="123.36225mm"
   viewBox="0 0 123.36917 123.36225"
   version="1.1"
   id="svg1"
   xml:space="preserve"
   xmlns:xlink="http://www.w3.org/1999/xlink"
   xmlns="http://www.w3.org/2000/svg"
   xmlns:svg="http://www.w3.org/2000/svg">
	<defs>
		<style>
			:root { --c1: #ffffff; --c2: #7e7e7e; }
			.w { fill: var(--c1); }
			.g { fill: var(--c2); }
		</style>
	</defs>
	<g
     id="layer3"
     transform="translate(-33.787766,-28.289912)">
		<g id="g1363" class="w">
			<path d="m 86.22,80.66 9.02,9.08 -8.99,9.14 -9.08,-9.2 z" id="path1360" />
			<path d="m 104.65,80.72 9.02,9.08 -8.99,9.14 -9.08,-9.2 z" id="path1361" />
			<path d="m 95.33,76.1 5.17,5.14 -5.06,5.08 -5.24,-5.19 z" id="path1362" />
			<path d="m 95.4,93.55 5.17,5.14 -5.06,5.08 -5.24,-5.19 z" id="path1363" />
		</g>
		<g id="g1366">
			<path class="w" d="M 48.19,48.35 33.79,67.33 67.12,92.86 59.04,99.01 55.32,94.1 52.27,96.41 58.17,104.21 73.35,92.91 39.03,66.71 51.24,50.7 Z" id="path1364" />
			<path class="g" d="M 51.28,52.68 40.72,66.54 70.42,89.36 73.06,88.37 63.95,81.4 63.53,77.52 47.36,65.22 l 4.87,-6.23 z" id="path1365" />
			<path class="w" d="m 58.87,52.23 -6.6,8.7 21.15,16.13 2.29,-2.97 -18.23,-13.94 4.29,-5.45 z" id="path1366" />
		</g>
		<g id="g1371" transform="rotate(73.201797,92.668464,91.671483)">
			<path class="w" d="M 47.81,48.53 33.67,67.8 67.66,92.68 59.8,99.15 55.83,94.3 52.86,96.57 59.16,104.33 73.92,92.6 38.98,67.02 50.94,50.84 Z" id="path1369" />
			<path class="g" d="M 51.07,52.71 40.72,66.91 70.94,89.24 73.63,88.17 64.32,81.37 63.75,77.56 47.42,65.49 52.23,59.15 Z" id="path1370" />
			<path class="w" d="m 58.52,52.33 -6.29,8.73 21.31,15.74 2.31,-3.04 -18.38,-13.6 4.11,-5.75 z" id="path1371" />
		</g>
		<g id="g1374" transform="rotate(144.77591,94.222739,91.146412)">
			<path class="w" d="M 47.81,48.53 33.67,67.8 67.66,92.68 59.8,99.15 55.83,94.3 52.86,96.57 59.16,104.33 73.92,92.6 38.98,67.02 50.94,50.84 Z" id="path1372" />
			<path class="g" d="M 51.07,52.71 40.72,66.91 70.94,89.24 73.63,88.17 64.32,81.37 63.75,77.56 47.42,65.49 52.23,59.15 Z" id="path1373" />
			<path class="w" d="m 58.52,52.33 -6.29,8.73 21.31,15.74 2.31,-3.04 -18.38,-13.6 4.11,-5.75 z" id="path1374" />
		</g>
		<g id="g1377" transform="rotate(-144.00213,94.098169,90.665602)">
			<path class="w" d="M 48.78,48.2 34.23,67.3 67.66,92.68 59.8,99.15 55.95,94.04 52.97,96.41 59.16,104.33 73.99,92.69 39.51,66.74 51.94,50.54 Z" id="path1375" />
			<path class="g" d="M 52.08,52.31 41.21,66.43 70.94,89.24 73.63,88.17 64.61,81.37 64.22,77.6 47.95,65.25 52.97,58.85 Z" id="path1376" />
			<path class="w" d="M 59.38,52.09 52.89,60.71 74.11,76.99 76.48,73.9 58.09,60.05 62.41,54.53 Z" id="path1377" />
		</g>
		<g id="g1380" transform="rotate(-71.583858,94.005075,90.754352)" style="display:inline">
			<path class="w" d="M 48.52,48.36 34.05,67.57 67.66,92.68 59.8,99.15 55.83,94.3 52.86,96.57 59.16,104.33 73.9,92.74 39.36,67.03 51.47,50.8 Z" id="path1378" />
			<path class="g" d="M 51.54,52.38 40.97,66.75 71.08,89.31 73.6,88.29 64.61,81.37 64,77.77 47.79,65.48 52.68,59.12 Z" id="path1379" />
			<path class="w" d="M 59.11,52.42 52.56,61.1 73.91,77.12 76.29,74.07 57.82,60.2 61.96,54.64 Z" id="path1380" />
		</g>
	</g>
</svg>