<?xml version="1.0" encoding="UTF-8" standalone="no"?>
<!-- Created with Inkscape (http://www.inkscape.org/) -->

<svg width="132.36053mm" height="80.88195mm" viewBox="0 0 132.36053 80.88195" version="1.1" id="svg1" xml:space="preserve"
  xmlns:xlink="http://www.w3.org/1999/xlink"
  xmlns="http://www.w3.org/2000/svg"
  xmlns:svg="http://www.w3.org/2000/svg">

  <defs>
    <style>
			:root { --c1: #ffffff; --c2: #7e7e7e; }
			.w { fill: var(--c1); }
			.g { fill: var(--c2); }
    </style>
  </defs>
  <g id="layer5" transform="matrix(0.95761875,0,0,0.95761875,-39.323148,-58.541715)">
    <path class="w" d="m 57.3,86.81 5.22,0.1 19.64,-19.83 28.03,27.88 27.69,-27.79 19.98,19.88 5.03,-0.05 -24.96,-25.15 -26.35,26.69 -0.05,-27.4 -3.11,0.05 0.14,27.36 -26.45,-26.54 z" id="path1" />
    <path class="w" d="m 56.42,118.93 5.33,0.03 20.42,20.69 28.03,-27.88 27.69,27.79 20.69,-20.51 4.88,-0.03 -25.52,25.86 -26.35,-26.69 -0.05,27.4 -3.11,-0.05 0.14,-27.36 -26.45,26.54 z" id="path2" />
    <path class="g" d="m 63.17,86.55 3.18,0.1 15.84,-15.88 23.77,23.59 -5.62,5.34 19.61,0.17 -5.69,-5.69 23.77,-23.24 15.88,15.67 3.35,-0.07 L 137.9,67.34 110.18,95.15 82.17,67.26 Z" id="path3" />
    <path class="w" d="m 52.22,96.91 -4.79,-0.1 -6.37,6.47 12.24,12.46 5.16,0.07 -12.46,-12.56 z" id="path4" />
    <path class="g" d="m 55.73,97.3 -3.61,-0.11 -5.91,6.04 12.29,12.43 3.44,-0.06 -12.37,-12.36 z" id="path5" />
    <path class="w" d="m 167.78,96.95 4.95,-0.13 6.55,6.56 -12.54,12.52 h -5.1 l 12.47,-12.49 z" id="path6" />
    <path class="g" d="m 164.42,97.26 3.43,-0.07 6.06,6.18 -12.27,12.31 h -3.58 l 12.3,-12.4 z" id="path7" />
    <path class="g" d="m 100.12,106.78 19.94,-0.08 -5.61,5.46 23.62,23.65 16.5,-16.66 3.74,-0.02 -20.42,20.24 -27.69,-27.8 -28.02,27.89 -19.98,-20.25 3.39,-0.08 16.57,16.74 23.66,-23.62 z" id="path8" />
    <g id="g11" class="w">
      <path class="w" d="m 82.06,90.97 4.79,4.71 -4.64,4.63 -4.86,-4.63 z" id="path9" />
      <path class="w" d="m 73.87,95.21 8.24,8.27 8.06,-8.22 8.3,8.12 -8,8.2 -8.37,-8.1 -8.15,8.18 -8.24,-8.22 z" id="path10" />
      <path class="w" d="m 82.05,106.63 4.79,4.71 -4.64,4.63 -4.86,-4.63 z" id="path11" />
    </g>
    <g id="g14" transform="translate(56.02898,0.12733857)" class="w">
      <path class="w" d="m 82.06,90.97 4.79,4.71 -4.64,4.63 -4.86,-4.63 z" id="path12" />
      <path class="w" d="m 73.87,95.21 8.24,8.27 8.06,-8.22 8.3,8.12 -8,8.2 -8.37,-8.1 -8.15,8.18 -8.24,-8.22 z" id="path13" />
      <path class="w" d="m 82.05,106.63 4.79,4.71 -4.64,4.63 -4.86,-4.63 z" id="path14" />
    </g>
  </g>
</svg>